<?xml version="1.0" encoding="UTF-8"?>
<!DOCTYPE svg PUBLIC "-//W3C//DTD SVG 1.1//EN" "http://www.w3.org/Graphics/SVG/1.1/DTD/svg11.dtd">
<!-- Creator: CorelDRAW X7 -->
<svg xmlns="http://www.w3.org/2000/svg" xml:space="preserve" width="8.5in" height="11in" version="1.1" style="shape-rendering:geometricPrecision; text-rendering:geometricPrecision; image-rendering:optimizeQuality; fill-rule:evenodd; clip-rule:evenodd"
viewBox="0 0 8500 11000"
 xmlns:xlink="http://www.w3.org/1999/xlink">
 <defs>
  <style type="text/css">
   <![CDATA[
    .fil0 {fill:#F2F5FB}
   ]]>
  </style>
 </defs>
 <g id="Layer_x0020_1">
  <metadata id="CorelCorpID_0Corel-Layer"/>
  <g id="_2769624705792">
   <path class="fil0" d="M4235 8495l-1652 -458c-36,-10 -84,-21 -112,-34l-72 -816c-5,-61 -3,-107 -11,-167l-30 -325c268,0 540,4 808,0 103,-2 63,-4 87,211 4,35 -1,65 5,100 7,50 12,141 12,190 1,54 12,134 17,185 32,1 189,47 232,58l581 162c39,9 83,20 123,37 17,-24 12,-54 11,-87l1 -1268c-28,0 -1854,10 -1904,-5l-11 -21c-3,-12 -2,-18 -3,-30 -1,-33 -4,-34 -6,-58 -4,-37 -8,-82 -9,-112 -9,-180 -57,-542 -57,-678 35,-8 76,-30 108,-46l100 -53c42,-18 65,-29 104,-49 20,-10 29,-14 48,-25l469 -233c38,-19 65,-39 100,-54 38,-17 68,-31 105,-49 16,-8 30,-16 47,-25 155,-82 377,-181 528,-263 31,-17 25,-9 38,-26l-1719 0 -75 -856c42,-13 941,-5 1067,-5 349,0 729,-14 1074,2 -12,-74 -7,-709 -4,-829l2738 -1c-3,118 -23,258 -33,378l-99 1111c-42,492 -82,995 -132,1483 -28,273 -245,2928 -267,2954 -3,3 -2094,587 -2208,601l1 -899zm-2821 719c41,3 132,36 176,49l707 198c64,18 115,30 178,48l1763 491 173 -49c62,-17 115,-30 178,-48l2119 -594c46,-12 306,-81 348,-103 0,-151 27,-291 33,-436 5,-127 36,-320 40,-436l35 -434c8,-64 8,-145 18,-215l171 -1961c4,-34 6,-77 9,-104l28 -327c36,-283 39,-583 76,-869 4,-33 8,-77 10,-103l73 -871c9,-160 43,-378 48,-549l54 -602c3,-24 5,-36 -21,-36l-6814 0c0,75 14,148 16,218 7,195 49,468 57,646l95 1084c4,32 7,77 9,103 25,328 48,652 83,983l55 655c2,40 6,59 8,105 8,153 44,369 49,549l207 2384c5,35 9,82 10,111 3,48 9,66 9,113z"/>
   <path class="fil0" d="M2098 3700c1424,0 2848,0 4272,0l-21 205c-4,32 -7,77 -10,103 -13,128 -41,450 -41,548l-379 186c-19,10 -34,16 -55,26l-538 269c-39,20 -69,34 -107,54l-376 190c-21,10 -36,16 -55,25 -36,18 -71,34 -106,55 -56,34 -93,27 -104,66l1639 0 -25 323c-8,100 -23,215 -31,316 -13,169 -35,492 -55,647l-27 321c-5,98 -20,220 -30,316 -17,164 -28,405 -48,566 -2,17 -1,23 -2,39 -3,52 -11,48 -25,56l-1080 300c-72,21 -145,38 -222,60l-437 124 -1 899c114,-14 2205,-598 2208,-601 22,-26 239,-2681 267,-2954 50,-488 90,-991 132,-1483l99 -1111c10,-120 30,-260 33,-378l-2738 1c-3,120 -8,755 4,829 -345,-16 -725,-2 -1074,-2 -126,0 -1025,-8 -1067,5z"/>
   <path class="fil0" d="M3593 1181l864 0 0 145 -864 0 0 347 1187 0c19,0 24,-5 24,-24l0 -751c0,-18 -5,-24 -24,-24l-848 0 0 -145 872 0 0 -315c0,-19 -5,-24 -24,-24l-1187 0 0 791z"/>
   <path class="fil0" d="M4982 1181l864 0 0 145 -864 0 0 323c0,19 5,24 24,24l1179 0 0 -799 -856 0 0 -145 856 0 0 -339 -1203 0 0 791z"/>
   <path class="fil0" d="M4223 7638l961 -265c0,-57 7,-91 8,-137 1,-57 8,-87 8,-137 0,-48 5,-84 8,-138 2,-35 6,-29 8,-64 1,-25 -1,-45 2,-71 5,-33 9,-98 13,-132 2,-24 0,-48 1,-71 3,-31 7,-28 8,-65 3,-96 16,-178 16,-275l-1021 0 -1 1268c1,33 6,63 -11,87z"/>
   <path class="fil0" d="M2205 1649c0,19 5,24 24,24l1179 0 0 -347 -864 0 0 -597 864 0 0 -339 -1203 0 0 1259z"/>
  </g>
 </g>
</svg>
