<?xml version="1.0" encoding="UTF-8"?>
<!DOCTYPE svg PUBLIC "-//W3C//DTD SVG 1.1//EN" "http://www.w3.org/Graphics/SVG/1.1/DTD/svg11.dtd">
<!-- Creator: CorelDRAW X7 -->
<svg xmlns="http://www.w3.org/2000/svg" xml:space="preserve" width="8.5in" height="11in" version="1.1" style="shape-rendering:geometricPrecision; text-rendering:geometricPrecision; image-rendering:optimizeQuality; fill-rule:evenodd; clip-rule:evenodd"
viewBox="0 0 8500 11000"
 xmlns:xlink="http://www.w3.org/1999/xlink">
 <defs>
  <style type="text/css">
   <![CDATA[
    .fil0 {fill:#F2F5FB}
   ]]>
  </style>
 </defs>
 <g id="Layer_x0020_1">
  <metadata id="CorelCorpID_0Corel-Layer"/>
  <path class="fil0" d="M3900 8359l-1411 -393c-83,-23 -36,5 -69,-220 -22,-153 -24,-375 -45,-531l-31 -350 730 0 42 554c10,21 -5,11 71,30 25,6 51,13 79,21l315 87c54,16 103,31 156,45l163 40 0 -1119 -1583 0 -141 -1608c-8,-99 -47,-461 -47,-543l1759 1c10,0 2,2 12,-1l0 -686 2275 3 -435 4919c-66,23 -1804,495 -1840,496l0 -745zm5 1246l583 -161c50,-14 93,-27 146,-41l1538 -431c83,-24 62,-1 76,-112 18,-140 21,-305 37,-453l57 -626c20,-154 24,-363 47,-543 14,-114 17,-246 30,-366l39 -450c6,-117 27,-244 33,-362 6,-123 18,-238 27,-361l87 -992c6,-103 28,-252 33,-355 11,-209 47,-457 54,-637 1,-29 5,-60 8,-93 2,-22 4,-64 8,-92 9,-57 11,-125 17,-178 3,-31 6,-67 7,-93 2,-32 16,-73 -13,-73l-5655 0 21 267c4,35 11,90 12,128 2,37 5,99 11,137l35 394c6,49 5,87 12,135 6,44 7,88 10,131l254 2936c11,169 37,365 47,529l20 268c2,41 12,92 14,134l24 264c13,94 19,304 32,397 4,32 -2,40 21,52 7,3 52,14 58,16l905 254c155,45 301,82 456,127l676 188c38,10 77,20 115,33 28,9 89,29 118,29z"/>
  <path class="fil0" d="M3900 4372l1774 0 -61 717c-571,0 -1142,0 -1713,0l1 717 1645 0c0,84 -35,434 -45,537 -5,47 -4,85 -9,132l-38 404c-5,46 -4,86 -10,131 -20,156 -43,500 -59,679 -3,40 -10,94 -13,134 -2,48 -10,91 -13,134 -29,0 -64,14 -92,22l-273 75c-64,19 -121,33 -185,50l-909 255 0 745c36,-1 1774,-473 1840,-496l435 -4919 -2275 -3 0 686z"/>
  <path class="fil0" d="M3959 2676c0,16 4,21 20,21l308 0c32,0 20,-55 20,-114l0 -409c1,1 3,1 3,4 0,2 3,2 3,3l116 186c21,36 38,64 62,99 17,27 44,82 64,97 15,-11 164,-261 184,-292 11,-19 21,-31 32,-49 13,-21 13,-34 32,-48l0 523 328 0c15,0 20,-5 20,-21l0 -1045 -355 0c-5,23 -14,31 -25,48l-151 245c-12,20 -18,30 -30,51 -11,20 -22,29 -28,52l-70 -98c-22,-37 -41,-63 -62,-99 -21,-34 -37,-62 -59,-96 -14,-22 -52,-81 -57,-103l-355 0 0 1045z"/>
  <path class="fil0" d="M1593 2676c0,16 5,21 20,21l309 0c15,0 20,-5 20,-21l0 -328c413,0 369,-26 368,74l0 194c0,106 -48,81 329,81 15,0 20,-5 20,-21l0 -1045 -349 0 0 369 -368 0 0 -369 -349 0 0 1045z"/>
  <path class="fil0" d="M3900 7642c28,-1 357,-97 395,-106 120,-30 286,-84 394,-109l54 -790c0,-47 6,-66 6,-114l-849 0 0 1119z"/>
  <path class="fil0" d="M3901 5806l-1 -717 -947 0 45 686c7,50 10,38 69,38l624 0c52,0 171,12 210,-7z"/>
  <path class="fil0" d="M2806 1960c0,33 82,20 147,20 56,0 112,0 168,0 -17,35 -13,660 0,717 89,0 179,-1 268,0 97,0 80,37 80,-188 0,-84 13,-489 -6,-529l274 0c100,1 74,44 74,-349l-1005 0 0 329z"/>
  <path class="fil0" d="M5299 2676c0,16 4,21 20,21l824 0 0 -349 -496 0 0 -717 -348 0 0 1045z"/>
 </g>
</svg>
