<?xml version="1.0" encoding="UTF-8"?>
<!DOCTYPE svg PUBLIC "-//W3C//DTD SVG 1.1//EN" "http://www.w3.org/Graphics/SVG/1.1/DTD/svg11.dtd">
<!-- Creator: CorelDRAW X7 -->
<svg xmlns="http://www.w3.org/2000/svg" xml:space="preserve" width="8.5in" height="11in" version="1.1" style="shape-rendering:geometricPrecision; text-rendering:geometricPrecision; image-rendering:optimizeQuality; fill-rule:evenodd; clip-rule:evenodd"
viewBox="0 0 8500 11000"
 xmlns:xlink="http://www.w3.org/1999/xlink">
 <defs>
  <style type="text/css">
   <![CDATA[
    .fil0 {fill:#F2F5FB}
   ]]>
  </style>
 </defs>
 <g id="Layer_x0020_1">
  <metadata id="CorelCorpID_0Corel-Layer"/>
  <g id="_2769619557648">
   <path class="fil0" d="M2197 7099l296 83c49,13 104,28 151,42 93,26 709,202 765,202l0 -3502 684 0 0 4417 -1776 -485c-26,-7 -98,-25 -120,-36l0 -721zm2141 -3942l2523 0 -488 5463 -2035 550 0 -6013zm-2595 5845c144,34 340,100 482,136 54,14 109,28 164,44l1620 454c48,13 299,88 329,88 29,0 270,-73 323,-87 58,-14 108,-31 161,-46 363,-107 764,-212 1133,-317l815 -226c27,-9 51,-16 80,-24 21,-6 59,-20 83,-22l35 -396c23,-177 25,-421 48,-598 25,-186 31,-438 55,-600l40 -495c2,-26 5,-70 10,-102l147 -1704c12,-164 36,-332 44,-499l43 -499c4,-39 6,-67 9,-103l87 -999c4,-30 7,-71 9,-95l23 -311 -6275 0c-31,0 -17,32 -15,74 2,28 5,69 10,102l35 396c10,176 44,433 52,602 2,62 9,136 18,198 32,228 35,573 68,802l61 704c4,36 8,73 9,103 5,173 46,416 52,602 4,125 33,362 44,499 3,42 6,65 8,104l19 204c5,30 5,71 9,95 22,172 25,429 51,603 21,148 23,361 44,506l33 406c1,29 5,61 10,94l27 307z"/>
   <path class="fil0" d="M6486 4608l-1219 0 0 1212 286 -41c100,-15 188,-27 284,-43 114,-19 472,-65 568,-87 0,140 -62,650 -75,840l-126 1398 -195 58c-36,10 -65,16 -101,25l-715 200c-68,19 -133,34 -205,55 -71,20 -132,40 -202,58l-203 58 0 -722c28,-13 96,-27 128,-35 43,-11 86,-22 128,-36 85,-28 171,-46 256,-71 83,-24 168,-48 257,-70 55,-14 219,-67 257,-70l71 -673c11,-74 20,-157 26,-227l-279 41c-87,12 -798,130 -844,130l0 -2684 1963 0c0,94 -35,401 -44,514 -5,56 -16,118 -16,170zm-2148 4562l2035 -550 488 -5463 -2523 0 0 6013z"/>
   <path class="fil0" d="M4301 1604l795 0 0 134 -795 0 0 320 1093 0c17,0 22,-5 22,-23l0 -691c0,-17 -5,-22 -22,-22l-781 0 0 -134 781 0c17,0 22,-5 22,-22l0 -268c0,-17 -5,-22 -22,-22l-1093 0 0 728z"/>
   <path class="fil0" d="M3817 1738l-520 0 0 297c0,18 5,23 22,23l811 0 0 -1182 -313 0 0 862z"/>
  </g>
 </g>
</svg>
