<?xml version="1.0" encoding="UTF-8"?>
<!DOCTYPE svg PUBLIC "-//W3C//DTD SVG 1.1//EN" "http://www.w3.org/Graphics/SVG/1.1/DTD/svg11.dtd">
<!-- Creator: CorelDRAW X7 -->
<svg xmlns="http://www.w3.org/2000/svg" xml:space="preserve" width="8.5in" height="11in" version="1.1" style="shape-rendering:geometricPrecision; text-rendering:geometricPrecision; image-rendering:optimizeQuality; fill-rule:evenodd; clip-rule:evenodd"
viewBox="0 0 8500 11000"
 xmlns:xlink="http://www.w3.org/1999/xlink">
 <defs>
  <style type="text/css">
   <![CDATA[
    .fil0 {fill:#EDEFF0}
    .fil1 {fill:#EDEFF0;fill-rule:nonzero}
   ]]>
  </style>
 </defs>
 <g id="Layer_x0020_1">
  <metadata id="CorelCorpID_0Corel-Layer"/>
  <path class="fil0" d="M1889 6772l-373 375 -61 -61 373 -375 61 61zm-151 -146l-443 326 62 -463c2,-12 4,-26 7,-39 2,-14 6,-29 10,-45l-295 217 -47 -64 443 -325 -62 471c-2,13 -5,25 -7,38 -3,13 -7,25 -11,38l296 -218 47 64zm-338 -485l-466 251 -140 -260 65 -35 99 184 116 -62 -99 -184 66 -36 99 184 219 -118 41 76zm-571 -700c-26,8 -48,21 -68,37 -20,16 -37,36 -49,59 -13,23 -20,47 -23,72 -2,25 0,51 8,75 7,25 20,47 36,67 16,19 36,35 60,47 23,12 47,19 73,21 26,2 52,-1 77,-9 26,-8 49,-20 69,-36 19,-16 36,-36 48,-59 13,-23 20,-47 23,-72 2,-26 0,-51 -8,-76 -8,-24 -20,-46 -36,-66 -16,-19 -36,-35 -60,-47 -23,-12 -48,-19 -73,-21 -26,-2 -52,1 -77,8zm-26 -85c35,-11 71,-15 107,-11 37,3 71,14 104,32 33,18 62,41 85,70 24,29 41,61 52,96 11,37 15,74 12,111 -3,37 -13,72 -30,105 -17,34 -40,62 -67,85 -28,23 -60,41 -96,52 -36,11 -72,15 -108,11 -37,-3 -71,-14 -105,-32 -33,-18 -61,-41 -84,-69 -23,-29 -40,-62 -52,-98 -11,-36 -15,-73 -12,-110 3,-36 13,-71 30,-105 18,-33 40,-62 68,-85 28,-24 60,-41 96,-52zm-72 -217l-2 -15c-7,-45 -17,-75 -29,-88 -13,-13 -33,-18 -59,-14 -29,4 -48,15 -58,33 -9,18 -11,48 -4,91l2 15 150 -22zm66 -4l235 -35 11 80 -523 77 -17 -119c-5,-35 -7,-62 -5,-82 1,-20 6,-37 15,-52 10,-18 25,-33 43,-45 19,-12 40,-19 64,-23 42,-6 76,-1 103,16 27,17 45,45 56,84l212 -216 14 96 -209 209 1 10zm-62 -803c-4,1 -16,2 -34,4 -16,1 -29,2 -39,3 12,3 24,6 36,11 12,4 24,10 36,16l277 148 -292 128c-12,6 -24,11 -35,14 -11,4 -22,7 -33,10 11,1 22,2 34,4 12,2 25,5 38,8l258 66 -2 79 -547 -144 339 -144c6,-2 15,-6 27,-10 12,-5 28,-10 46,-17 -15,-5 -34,-14 -57,-25 -6,-4 -11,-6 -14,-7l-328 -165 555 -108 -2 80 -263 49zm111 -357l32 -144 -129 27c-8,1 -18,2 -28,3 -11,1 -22,2 -35,3 10,5 20,10 29,16 9,5 18,10 25,16l106 79zm255 -185l-146 28 -47 204 120 90 -21 88 -479 -371 593 -128 -20 89zm-334 -408l430 153 -29 81 -430 -153 -47 133 -69 -25 123 -345 69 25 -47 131zm511 -33l-479 -226 37 -77 478 225 -36 78zm-16 -769c-31,9 -58,22 -81,39 -24,17 -44,38 -60,63 -32,48 -42,97 -31,148 11,51 41,92 90,125 48,31 97,42 147,33 50,-9 90,-36 120,-80 17,-27 29,-54 35,-84 6,-30 7,-62 3,-96l81 54c1,28 -2,56 -10,83 -8,27 -21,54 -39,81 -22,34 -48,61 -78,82 -30,22 -63,36 -99,44 -35,7 -71,7 -107,0 -36,-7 -71,-22 -103,-43 -32,-21 -59,-47 -80,-77 -21,-31 -34,-64 -42,-100 -7,-36 -7,-72 1,-108 7,-36 22,-70 44,-103 17,-26 37,-48 60,-66 23,-19 50,-34 79,-46l70 51zm303 96l22 -72c22,10 44,14 64,9 21,-5 41,-17 59,-37 17,-19 25,-39 25,-60 -1,-20 -10,-39 -27,-54 -23,-21 -61,-21 -114,1 -8,3 -13,6 -17,7 -60,25 -105,36 -135,35 -30,-1 -58,-12 -82,-34 -32,-29 -49,-64 -49,-103 0,-40 16,-77 47,-113 27,-29 54,-48 83,-57 28,-10 57,-9 84,3l-19 73c-19,-4 -36,-3 -50,1 -15,4 -27,13 -38,25 -16,17 -23,35 -24,53 0,18 8,34 23,48 23,21 65,18 126,-8 5,-2 8,-3 11,-4 53,-23 94,-34 124,-33 31,1 58,13 84,36 37,34 56,72 57,115 1,43 -17,85 -53,125 -30,33 -62,54 -97,61 -35,8 -69,2 -104,-17zm138 -499l-77 -193 63 -27 60 203 -46 17zm521 24l-273 -365 -88 66 -14 -75 124 -92 314 419 -63 47zm311 -616c-15,-28 -34,-46 -59,-55 -24,-8 -49,-6 -74,7 -27,15 -45,35 -52,60 -7,26 -3,53 13,81 15,29 35,48 60,56 25,8 51,5 78,-10 25,-13 41,-33 47,-59 6,-26 2,-52 -13,-80zm33 164c-7,10 -15,19 -24,27 -8,7 -18,14 -28,20 -42,22 -84,27 -126,13 -42,-13 -75,-42 -98,-86 -26,-48 -32,-95 -17,-140 14,-46 46,-82 96,-108 46,-25 91,-31 135,-18 43,13 78,43 103,90 26,50 31,140 15,273l-2 15 -20 160 -73 1 39 -247z"/>
  <path class="fil0" d="M4523 7639l80 -20 76 304c11,45 30,76 56,93 27,18 61,22 102,11 41,-10 69,-29 85,-57 15,-28 17,-64 6,-109l-76 -304 81 -20 77 311c17,68 13,123 -13,165 -26,42 -73,71 -142,88 -68,17 -124,13 -166,-11 -42,-25 -72,-72 -89,-140l-77 -311zm645 362l-202 -496 422 168c12,5 24,10 36,16 12,6 25,13 39,21l-134 -331 71 -29 202 496 -430 -171c-11,-5 -23,-10 -34,-16 -12,-5 -23,-12 -34,-19l136 332 -72 29zm447 -305l42 -60c17,16 36,25 56,27 21,2 43,-4 65,-17 22,-13 35,-29 41,-48 6,-20 3,-39 -9,-59 -16,-26 -51,-37 -106,-32 -8,1 -14,1 -18,2 -63,5 -108,3 -136,-7 -28,-10 -50,-29 -66,-56 -21,-37 -26,-73 -15,-110 11,-37 37,-67 77,-91 32,-19 63,-29 93,-29 29,0 55,9 78,27l-39 63c-18,-9 -33,-14 -48,-14 -14,0 -28,4 -42,12 -19,11 -32,26 -37,43 -6,16 -4,33 6,50 16,27 56,37 120,30 5,0 8,0 11,-1 56,-5 98,-3 125,6 28,10 51,29 68,58 24,42 31,83 19,124 -12,40 -41,74 -86,100 -37,22 -73,32 -108,29 -34,-3 -65,-19 -91,-47zm599 -604c-16,-20 -35,-37 -57,-49 -23,-12 -46,-20 -72,-23 -25,-3 -49,-1 -73,6 -24,7 -45,18 -65,34 -20,16 -36,35 -47,56 -12,22 -19,46 -21,71 -3,26 -1,50 7,74 7,24 19,47 36,67 16,20 35,37 57,49 22,12 46,19 71,22 25,4 50,2 74,-5 23,-7 45,-18 65,-35 20,-15 35,-34 47,-56 11,-21 18,-45 21,-71 2,-25 0,-50 -8,-74 -7,-24 -19,-46 -35,-66zm68 -55c23,29 39,60 49,94 10,34 13,69 8,105 -4,37 -15,71 -32,102 -18,32 -41,59 -69,82 -29,23 -61,40 -95,51 -35,10 -71,14 -107,10 -36,-3 -70,-13 -101,-30 -31,-17 -58,-39 -81,-68 -23,-29 -40,-60 -50,-94 -9,-34 -12,-69 -8,-106 4,-36 15,-70 33,-101 17,-31 40,-59 69,-82 29,-23 61,-40 95,-51 34,-10 69,-14 106,-10 37,3 71,14 102,30 31,17 58,40 81,68zm232 129l-380 -348 194 -212 53 48 -138 150 95 88 138 -151 54 50 -138 150 123 113 137 -151 56 51 -194 212zm245 -397l42 -57c23,-31 39,-55 46,-74 8,-19 11,-37 10,-56 -2,-26 -10,-50 -24,-72 -14,-23 -34,-44 -60,-64 -27,-19 -53,-33 -78,-40 -26,-7 -51,-7 -76,-2 -19,5 -36,13 -53,27 -16,13 -37,37 -63,71l-18 25 -18 24 292 218zm11 112l-413 -308 68 -90c43,-59 77,-98 101,-118 24,-19 50,-33 77,-41 36,-10 73,-11 111,-2 37,9 75,28 111,55 37,27 65,58 84,91 19,33 29,69 29,107 1,28 -5,56 -16,83 -11,28 -35,66 -71,115l-14 18 -67 90z"/>
  <g id="_2770032218816">
   <polygon class="fil0" points="7975,1719 7750,1779 7537,1835 7552,1783 7744,1754 "/>
   <polygon class="fil0" points="7699,2358 7518,2406 7349,2451 7360,2409 7514,2386 "/>
   <polygon class="fil0" points="7804,1927 7638,1971 7483,2012 7493,1974 7634,1953 "/>
   <polygon class="fil0" points="6490,4690 6287,4744 6127,4786 6141,4743 6282,4722 "/>
   <polygon class="fil0" points="6287,4865 6170,4897 6077,4921 6085,4896 6167,4884 "/>
   <polygon class="fil0" points="6701,4205 6467,4267 6283,4316 6299,4265 6462,4241 "/>
   <polygon class="fil0" points="6467,4332 6355,4362 6266,4385 6274,4361 6352,4349 "/>
   <polygon class="fil0" points="7853,2510 7546,2591 7303,2655 7325,2590 7539,2557 "/>
  </g>
  <g id="_2770032217696">
   <polygon class="fil1" points="4041,5808 4041,8071 2897,8071 2897,6175 "/>
   <polygon class="fil1" points="2900,1509 4044,1509 4044,2275 2900,2488 "/>
   <polygon class="fil1" points="8150,1473 7212,1738 7543,1677 7408,2166 6886,2261 8206,2063 7349,2378 7242,2760 6749,2849 7845,2724 5171,3524 5179,3555 5179,4273 5179,4387 6893,3970 5890,4326 6291,4210 6193,4505 5630,4691 6959,4345 6136,4671 6013,5042 5672,5153 6554,4918 4036,5815 4036,2264 "/>
  </g>
 </g>
</svg>
